<?xml version="1.0" encoding="UTF-8" standalone="no"?>
<svg width="42px" height="42px" viewBox="0 0 42 42" version="1.1" xmlns="http://www.w3.org/2000/svg" xmlns:xlink="http://www.w3.org/1999/xlink">
    <!-- Generator: Sketch 3.6 (26304) - http://www.bohemiancoding.com/sketch -->
    <title>Group 8</title>
    <desc>Created with Sketch.</desc>
    <defs></defs>
    <g id="Page-1" stroke="none" stroke-width="1" fill="none" fill-rule="evenodd">
        <g id="iPhone-6-Copy-3" transform="translate(-187.000000, -405.000000)">
            <g id="Group-8" transform="translate(188.000000, 407.000000)">
                <g id="Group-7" transform="translate(18.524333, 0.000000)" stroke-linecap="square">
                    <path d="M0.163963021,0.495867769 L2.45944532,0.495867769" id="Line" stroke="#4A4A4A" stroke-width="3"></path>
                    <path d="M1.47566719,1.48760331 L3.77114949,1.48760331" id="Line" stroke="#4A4A4A" stroke-width="3"></path>
                    <path d="M2.78737136,2.47933884 L5.08285365,2.47933884" id="Line" stroke="#4A4A4A" stroke-width="3"></path>
                    <path d="M4.09907553,3.47107438 L6.39455782,3.47107438" id="Line" stroke="#4A4A4A" stroke-width="3"></path>
                    <path d="M5.08285365,4.46280992 L7.37833595,4.46280992" id="Line" stroke="#4A4A4A" stroke-width="3"></path>
                    <path d="M6.39455782,5.45454545 L8.69004012,5.45454545" id="Line" stroke="#4A4A4A" stroke-width="3"></path>
                    <path d="M7.70626199,6.44628099 L10.0017443,6.44628099" id="Line" stroke="#4A4A4A" stroke-width="3"></path>
                    <path d="M9.01796616,7.43801653 L11.3134485,7.43801653" id="Line" stroke="#4A4A4A" stroke-width="3"></path>
                    <path d="M10.3296703,8.42975207 L12.6251526,8.42975207" id="Line" stroke="#4A4A4A" stroke-width="3"></path>
                    <path d="M11.2274115,9.33677686 L11.9774115,10.0867769" id="Line" stroke="#979797"></path>
                    <path d="M11.6413745,9.4214876 L13.9368568,9.4214876" id="Line" stroke="#4A4A4A" stroke-width="3"></path>
                    <path d="M12.9530787,10.4132231 L15.248561,10.4132231" id="Line" stroke="#4A4A4A" stroke-width="3"></path>
                    <path d="M14.2647828,11.4049587 L16.5602651,11.4049587" id="Line" stroke="#4A4A4A" stroke-width="3"></path>
                    <path d="M15.576487,12.3966942 L17.8719693,12.3966942" id="Line" stroke="#4A4A4A" stroke-width="3"></path>
                    <path d="M16.8881912,13.3884298 L19.1836735,13.3884298" id="Line" stroke="#4A4A4A" stroke-width="3"></path>
                    <path d="M18.1998953,14.3801653 L20.4953776,14.3801653" id="Line" stroke="#979797" stroke-width="3"></path>
                    <path d="M18.1998953,14.3801653 L20.4953776,14.3801653" id="Line" stroke="#4A4A4A" stroke-width="3"></path>
                </g>
                <g id="Group-7" transform="translate(10.975667, 7.500000) scale(-1, 1) translate(-10.975667, -7.500000) translate(0.475667, 0.000000)" stroke-width="3" stroke-linecap="square">
                    <path d="M0.163963021,0.495867769 L2.45944532,0.495867769" id="Line" stroke="#4A4A4A"></path>
                    <path d="M1.47566719,1.48760331 L3.77114949,1.48760331" id="Line" stroke="#4A4A4A"></path>
                    <path d="M2.78737136,2.47933884 L5.08285365,2.47933884" id="Line" stroke="#4A4A4A"></path>
                    <path d="M4.09907553,3.47107438 L6.39455782,3.47107438" id="Line" stroke="#4A4A4A"></path>
                    <path d="M5.08285365,4.46280992 L7.37833595,4.46280992" id="Line" stroke="#4A4A4A"></path>
                    <path d="M6.39455782,5.45454545 L8.69004012,5.45454545" id="Line" stroke="#4A4A4A"></path>
                    <path d="M7.70626199,6.44628099 L10.0017443,6.44628099" id="Line" stroke="#4A4A4A"></path>
                    <path d="M9.01796616,7.43801653 L11.3134485,7.43801653" id="Line" stroke="#4A4A4A"></path>
                    <path d="M10.3296703,8.42975207 L12.6251526,8.42975207" id="Line" stroke="#4A4A4A"></path>
                    <path d="M11.6413745,9.4214876 L13.9368568,9.4214876" id="Line" stroke="#4A4A4A"></path>
                    <path d="M12.9530787,10.4132231 L15.248561,10.4132231" id="Line" stroke="#4A4A4A"></path>
                    <path d="M14.2647828,11.4049587 L16.5602651,11.4049587" id="Line" stroke="#4A4A4A"></path>
                    <path d="M15.576487,12.3966942 L17.8719693,12.3966942" id="Line" stroke="#4A4A4A"></path>
                    <path d="M16.8881912,13.3884298 L19.1836735,13.3884298" id="Line" stroke="#4A4A4A"></path>
                    <path d="M18.1998953,14.3801653 L20.4953776,14.3801653" id="Line" stroke="#979797"></path>
                    <path d="M18.1998953,14.3801653 L20.4953776,14.3801653" id="Line" stroke="#4A4A4A"></path>
                </g>
                <rect id="Rectangle-107" fill="#4A4A4A" x="3.76766091" y="13.8842975" width="11.8053375" height="26.1157025"></rect>
                <rect id="Rectangle-107" fill="#4A4A4A" transform="translate(20.000000, 20.991736) scale(1, -1) translate(-20.000000, -20.991736) " x="3.76766091" y="13.8842975" width="32.4646782" height="14.214876"></rect>
                <rect id="Rectangle-107" fill="#4A4A4A" x="3.76766091" y="11.9008264" width="32.4646782" height="1.98347107"></rect>
                <rect id="Rectangle-107" fill="#4A4A4A" x="3.76766091" y="13.8842975" width="32.4646782" height="1.98347107"></rect>
                <rect id="Rectangle-107" fill="#4A4A4A" x="7.70277342" y="10.2479339" width="24.5944532" height="1.98347107"></rect>
                <rect id="Rectangle-107" fill="#4A4A4A" x="7.70277342" y="9.25619835" width="24.5944532" height="1.98347107"></rect>
                <rect id="Rectangle-107" fill="#4A4A4A" x="9.67032967" y="7.60330579" width="20.3314146" height="1.98347107"></rect>
                <rect id="Rectangle-107" fill="#4A4A4A" x="12.6216641" y="5.61983471" width="15.0845979" height="1.98347107"></rect>
                <rect id="Rectangle-107" fill="#4A4A4A" x="15.2450724" y="3.63636364" width="9.18192918" height="1.98347107"></rect>
                <rect id="Rectangle-107" fill="#4A4A4A" x="17.5405547" y="1.65289256" width="4.91889063" height="1.98347107"></rect>
                <rect id="Rectangle-107" fill="#4A4A4A" x="24.4270016" y="13.8842975" width="11.8053375" height="26.1157025"></rect>
            </g>
        </g>
    </g>
</svg>